<?xml version="1.0" standalone="no"?>
<!DOCTYPE svg PUBLIC "-//W3C//DTD SVG 20010904//EN"
 "http://www.w3.org/TR/2001/REC-SVG-20010904/DTD/svg10.dtd">
<svg version="1.0" xmlns="http://www.w3.org/2000/svg"
 width="1024.000000pt" height="1024.000000pt" viewBox="0 0 1024.000000 1024.000000"
 preserveAspectRatio="xMidYMid meet">

<g transform="translate(0.000000,1024.000000) scale(0.100000,-0.100000)"
fill="#000000" stroke="none">
<path d="M4988 7425 c-18 -27 -34 -72 -47 -135 -24 -122 -47 -172 -218 -470
-203 -355 -292 -514 -555 -995 -215 -392 -320 -582 -422 -767 l-37 -66 64 -99
c236 -362 413 -798 505 -1246 l27 -129 605 1 c333 0 700 0 816 0 l212 1 17 93
c76 415 254 868 490 1244 83 132 86 139 72 163 -49 83 -378 680 -560 1015 -91
168 -374 671 -474 845 -146 251 -171 310 -188 435 -7 53 -34 113 -59 134 -15
12 -16 -11 -16 -247 l0 -261 74 -133 c40 -73 126 -227 191 -343 221 -394 316
-565 459 -828 206 -375 200 -365 179 -341 -77 89 -564 657 -588 687 l-30 37
-50 -45 c-27 -24 -53 -45 -57 -45 -4 0 -44 55 -89 123 -44 67 -83 124 -85 126
-2 2 -4 -187 -4 -420 l0 -425 43 -31 c83 -58 122 -193 83 -287 -48 -115 -173
-176 -291 -141 -152 44 -223 216 -145 352 17 30 48 64 70 79 l40 26 2 389 c2
283 0 385 -8 376 -6 -7 -51 -75 -99 -152 -49 -77 -106 -166 -128 -199 l-39
-58 -72 71 -72 72 -135 -148 c-74 -81 -186 -205 -248 -275 -63 -71 -116 -128
-118 -128 -5 0 19 45 97 185 37 66 117 210 177 320 61 110 176 317 255 460 80
143 200 358 267 478 l121 218 -2 262 -3 262 -27 -40z"/>
<path d="M4310 3050 l0 -270 810 0 810 0 0 270 0 270 -810 0 -810 0 0 -270z"/>
</g>
</svg>
